<svg width="610" xmlns="http://www.w3.org/2000/svg" height="610" fill="none"><g data-testid="Group"><rect rx="15" ry="15" width="610" height="610" style="fill: rgb(0, 0, 0); fill-opacity: 0;" fill="none" class="fills" data-testid="Rectangle"/><g xml:space="preserve" data-testid="seed-svgrepo-com" style="fill: rgb(0, 0, 0);" filter="url(#a)"><defs><filter id="a" x="-.004" y="-.004" width="1.008" height="1.008" filterUnits="objectBoundingBox" color-interpolation-filters="sRGB"><feFlood flood-opacity="0" result="BackgroundImageFix"/><feBlend in="SourceGraphic" in2="BackgroundImageFix" result="shape"/><feGaussianBlur stdDeviation="1" result="filter_e64b04a6-8fff-80cb-8004-d59f4841348e"/></filter></defs><g data-testid="base-background"><defs><linearGradient id="b" x1=".5" y1="0" x2=".5" y2="1"><stop offset="0" stop-color="#daa100"/><stop offset="1" stop-color="#da6200"/></linearGradient></defs><path d="M48.436 48.436h512.003v512.003H48.436V48.436Z" fill="none" class="fills"/></g><g data-testid="Group"><g data-testid="svg-path"><path d="M306 336c9.837-35.535 8.982-81.658 20-114 16.103-47.269 42.155-74.907 36.76-78-12.059-6.912-24.763-10.564-37.824-10.564-22.904 0-44.711 11.226-63.866 31.575-7.123 7.568-13.927 16.367-20.188 26.379C238 196 281.793 248.556 306 336Z" style="fill: rgb(0, 0, 0); fill-opacity: 1;" class="fills"/><g class="strokes"><g class="inner-stroke-shape"><defs><clipPath id="d"><use href="#c"/></clipPath><path d="M306 336c9.837-35.535 8.982-81.658 20-114 16.103-47.269 42.155-74.907 36.76-78-12.059-6.912-24.763-10.564-37.824-10.564-22.904 0-44.711 11.226-63.866 31.575-7.123 7.568-13.927 16.367-20.188 26.379C238 196 281.793 248.556 306 336Z" id="c" style="fill: none; stroke-width: 12; stroke: rgb(0, 0, 0); stroke-opacity: 1;"/></defs><use href="#c" clip-path="url('#d')"/></g></g></g><g data-testid="svg-path"><path d="M396.321 128.306c-1.758-2.486-4.824-3.571-7.647-2.713-74.708 22.692-117.895 267.756-47.786 365.656.016.052 96.649-57.717 114.114-112.564 13.758-43.206 24.423-133.184-58.681-250.379Zm-83.025 19.121" style="fill: rgb(177, 178, 181); fill-opacity: 0;" fill="none" class="fills"/><g class="strokes"><g class="inner-stroke-shape"><defs><clipPath id="f"><use href="#e"/></clipPath><path d="M396.321 128.306c-1.758-2.486-4.824-3.571-7.647-2.713-74.708 22.692-117.895 267.756-47.786 365.656.016.052 96.649-57.717 114.114-112.564 13.758-43.206 24.423-133.184-58.681-250.379Zm-83.025 19.121" id="e" style="fill: none; stroke-width: 12; stroke: rgb(0, 0, 0); stroke-opacity: 1;"/></defs><use href="#e" clip-path="url('#f')"/></g></g></g><g data-testid="svg-path"><path d="M183.258 159.785a7.082 7.082 0 0 1 6.771-4.695c45.506.638 92.969 102.185 117.755 179.466 3.498 10.906.065 22.04.216 31.444.252 15.673 2.5 28.625 5 43 5.569 32.024 17 57 28.418 82.191-.001.054-111.801-28.541-144.667-76.122-25.89-37.483-62.064-120.489-13.493-255.284Z" style="fill: rgb(177, 178, 181); fill-opacity: 0;" fill="none" class="fills"/><g class="strokes"><g class="inner-stroke-shape"><defs><clipPath id="h"><use href="#g"/></clipPath><path d="M183.258 159.785a7.082 7.082 0 0 1 6.771-4.695c45.506.638 92.969 102.185 117.755 179.466 3.498 10.906.065 22.04.216 31.444.252 15.673 2.5 28.625 5 43 5.569 32.024 17 57 28.418 82.191-.001.054-111.801-28.541-144.667-76.122-25.89-37.483-62.064-120.489-13.493-255.284Z" id="g" style="fill: none; stroke-width: 12; stroke: rgb(0, 0, 0); stroke-opacity: 1;"/></defs><use href="#g" clip-path="url('#h')"/></g></g></g></g></g></g></svg>