<svg width="356.83" xmlns="http://www.w3.org/2000/svg" height="377.093" fill="none"><g data-testid="Group"><g data-testid="svg-path"><defs><linearGradient id="a" x1=".5" y1="0" x2=".5" y2="1"><stop offset="0" stop-color="#daa100"/><stop offset="1" stop-color="#da6200"/></linearGradient><pattern patternUnits="userSpaceOnUse" x="52" y="17" width="233" height="352" id="b"><rect width="233" height="352" style="fill: url(&quot;#a&quot;);"/></pattern></defs><path d="M168.464 369C192.679 281.53 232.496 195.667 285 149.858c-12.63-43.439-30.932-78.22-52.64-101.283C213.206 28.226 191.4 17 168.5 17c-22.904 0-44.712 11.226-63.866 31.575C82.926 71.637 64.626 106.418 52 149.857c52.505 45.81 92.258 131.699 116.464 219.143ZM52 149.857" fill="url(#b)" class="fills"/><g class="strokes"><g class="inner-stroke-shape"><defs><clipPath id="d"><use href="#c"/></clipPath><path d="M168.464 369C192.679 281.53 232.496 195.667 285 149.858c-12.63-43.439-30.932-78.22-52.64-101.283C213.206 28.226 191.4 17 168.5 17c-22.904 0-44.712 11.226-63.866 31.575C82.926 71.637 64.626 106.418 52 149.857c52.505 45.81 92.258 131.699 116.464 219.143ZM52 149.857" id="c" style="fill: none; stroke-width: 6; stroke: rgb(0, 0, 0); stroke-opacity: 1;"/></defs><use href="#c" clip-path="url('#d')"/></g></g></g><g data-testid="svg-path"><defs><linearGradient id="e" x1=".5" y1="0" x2=".5" y2="1"><stop offset="0" stop-color="#da4700"/><stop offset="1" stop-color="#da6200"/></linearGradient><pattern patternUnits="userSpaceOnUse" x="123.915" y="20.046" width="188" height="337" patternTransform="rotate(-16.896 217.915 188.546)" id="f"><rect width="188" height="337" style="fill: url(&quot;#e&quot;);"/></pattern></defs><path d="M239.885 11.869c-1.759-2.485-4.825-3.57-7.648-2.713-74.708 22.693-117.895 267.757-47.785 365.657.016.052 96.649-57.718 114.114-112.564 13.758-43.207 24.422-133.185-58.681-250.38ZM156.859 30.99" fill="url(#f)" class="fills"/><g class="strokes"><g class="inner-stroke-shape"><defs><clipPath id="h"><use href="#g"/></clipPath><path d="M239.885 11.869c-1.759-2.485-4.825-3.57-7.648-2.713-74.708 22.693-117.895 267.757-47.785 365.657.016.052 96.649-57.718 114.114-112.564 13.758-43.207 24.422-133.185-58.681-250.38ZM156.859 30.99" id="g" style="fill: none; stroke-width: 6; stroke: rgb(0, 0, 0); stroke-opacity: 1;"/></defs><use href="#g" clip-path="url('#h')"/></g></g></g><g data-testid="svg-path"><defs><linearGradient id="i" x1=".5" y1="0" x2=".5" y2="1"><stop offset="0" stop-color="#da1a00"/><stop offset="1" stop-color="#da6200"/></linearGradient><pattern patternUnits="userSpaceOnUse" x="2.331" y="39.528" width="185" height="333.946" patternTransform="scale(-1 1) rotate(-.803 0 13739.56)" id="j"><rect width="185" height="333.946" style="fill: url(&quot;#i&quot;);"/></pattern></defs><path d="M26.821 43.349a7.081 7.081 0 0 1 6.771-4.695c80.17 1.123 133.844 223.058 151.39 336.1-.001.054-111.801-28.541-144.667-76.121C14.424 261.15-21.749 178.144 26.821 43.349Z" fill="url(#j)" class="fills"/><g class="strokes"><g class="inner-stroke-shape"><defs><clipPath id="l"><use href="#k"/></clipPath><path d="M26.821 43.349a7.081 7.081 0 0 1 6.771-4.695c80.17 1.123 133.844 223.058 151.39 336.1-.001.054-111.801-28.541-144.667-76.121C14.424 261.15-21.749 178.144 26.821 43.349Z" id="k" style="fill: none; stroke-width: 6; stroke: rgb(0, 0, 0); stroke-opacity: 1;"/></defs><use href="#k" clip-path="url('#l')"/></g></g></g></g></svg>